<svg version="1.1" viewBox="0.0 0.0 335.53805774278214 336.1916010498688" fill="none" stroke="none" stroke-linecap="square" stroke-miterlimit="10" xmlns:xlink="http://www.w3.org/1999/xlink" xmlns="http://www.w3.org/2000/svg"><clipPath id="p.0"><path d="m0 0l335.53806 0l0 336.1916l-335.53806 0l0 -336.1916z" clip-rule="nonzero"/></clipPath><g clip-path="url(#p.0)"><path fill="#000000" fill-opacity="0.0" d="m0 0l335.53806 0l0 336.1916l-335.53806 0z" fill-rule="evenodd"/><path fill="#ff0000" d="m0 168.0l0 0c0 -92.78384 75.21616 -168.0 168.0 -168.0l0 0c44.556366 0 87.28783 17.69995 118.793945 49.206062c31.506104 31.506111 49.206055 74.237564 49.206055 118.79394l0 0c0 92.783844 -75.216156 168.0 -168.0 168.0l0 0c-92.78384 0 -168.0 -75.216156 -168.0 -168.0zm19.22592 0l0 0c0 82.16565 66.60842 148.77408 148.77408 148.77408c82.16565 0 148.77408 -66.60843 148.77408 -148.77408l0 0c0 -82.16566 -66.60843 -148.77408 -148.77408 -148.77408l0 0c-82.16566 0 -148.77408 66.60842 -148.77408 148.77408z" fill-rule="evenodd"/><path fill="#ff0000" d="m91.80013 221.10251l53.006706 -53.006714l-53.006706 -53.006706l22.962952 -22.962952l53.00672 53.006706l53.0067 -53.006706l22.962967 22.962952l-53.006714 53.006706l53.006714 53.006714l-22.962967 22.962952l-53.0067 -53.0067l-53.00672 53.0067z" fill-rule="evenodd"/></g></svg>